<svg t="1763791010721" class="icon" viewBox="0 0 1024 1024" version="1.1" xmlns="http://www.w3.org/2000/svg" p-id="18588" width="200" height="200"><path d="M207.6149 870.9C88.7149 847.3 1.6149 739 0.0149 614.8c-0.1-9.5 0.3-19.1 1.3-28.5C14.4149 457 122.8149 360.1 249.6149 358.1c37.1-120.3 149.5-205 277.5-205h0.1c77.6 0 150.5 30.2 205.3 85 51 51 80.7 117.5 84.7 188.9 114.8 8.5 206.1 104.5 206.8 221.3 0.1 116.4-88.6 211.5-201.3 221.5h-0.1c-6.4 0.6-12.9 0.9-19.5 0.9-1 0-2.1 0.1-3.2 0.1-2 0-4-0.1-6.1-0.2l-5.2 0.1M754.0149 801.9h39.9c2.6 0.4 5.3 0.6 8 0.5 85.4-0.1 153.8-68.6 153.8-152.8-0.5-85.7-70-154.8-154.9-154.8h-0.1c-5 0-9.8 0.3-14.7 0.8l-40.2 3.9 2.8-40.3c0.5-6.7 0.8-11.1 0.8-15.6 0-59.3-23.1-115.1-65.1-157-42-41.9-97.7-65-157-65h-0.1c-105.5 0-197.1 75.2-217.8 178.6l-6.1 30.4-30.9-3.1C170.6149 417.1 79.6149 491.4 69.3149 593.1c-0.7 6.9-1 13.9-0.9 20.8 1.2 99.4 76.9 180 176 187.6l10 0.8" fill="#1296db" p-id="18589"></path></svg>